<svg width="76" height="76" viewBox="0 0 76 76" fill="none" xmlns="http://www.w3.org/2000/svg">
<rect width="75.2216" height="75.2216" rx="37.6108" fill="white"/>
<path d="M50.7502 31.6252L45.0835 34.4585M45.0835 34.4585L44.3752 34.8127L38.0002 38.0002M45.0835 34.4585V39.4168M45.0835 34.4585L31.6252 27.3752M38.0002 38.0002L25.2502 31.6252M38.0002 38.0002V51.4585M43.069 25.7913L45.9023 27.2788C48.9496 28.8782 50.4739 29.6772 51.3211 31.1152C52.1668 32.5517 52.1668 34.3409 52.1668 37.918V38.0837C52.1668 41.6594 52.1668 43.4487 51.3211 44.8852C50.4739 46.3231 48.9496 47.1235 45.9023 48.7229L43.069 50.209C40.5813 51.5137 39.3375 52.1668 38.0002 52.1668C36.6628 52.1668 35.419 51.5152 32.9313 50.209L30.098 48.7215C27.0507 47.1221 25.5264 46.3231 24.6792 44.8852C23.8335 43.4487 23.8335 41.6594 23.8335 38.0852V37.9194C23.8335 34.3423 23.8335 32.5531 24.6792 31.1166C25.5264 29.6787 27.0507 28.8782 30.098 27.2802L32.9313 25.7927C35.419 24.4866 36.6628 23.8335 38.0002 23.8335C39.3375 23.8335 40.5813 24.4852 43.069 25.7913Z" stroke="#BF6102" stroke-width="2.5" stroke-linecap="round"/>
</svg>
