<svg width="76" height="76" viewBox="0 0 76 76" fill="none" xmlns="http://www.w3.org/2000/svg">
<rect width="75.2216" height="75.2216" rx="37.6108" fill="white"/>
<path d="M32.3333 40.8333V41.5417M43.6667 40.8333V41.5417M38 28.0833C38.9492 28.0833 39.9125 28.2108 40.8333 28.4517C43.355 25.6183 47.9592 24.4283 49.9283 25.25C51.9117 26.0717 49.3333 35.1667 49.3333 35.1667C50.1408 36.6825 50.75 38.34 50.75 40.04C50.75 46.3583 45.0408 50.75 38 50.75C30.9592 50.75 25.25 46.5 25.25 40.04C25.25 38.2692 25.9583 36.64 26.6667 35.1667C26.6667 35.1667 23.9892 26.0717 25.9583 25.25C27.9275 24.4283 32.645 25.5758 35.1667 28.4092C36.0959 28.1949 37.0463 28.0856 38 28.0833Z" stroke="#BF6102" stroke-width="3" stroke-linecap="round" stroke-linejoin="round"/>
<path d="M36.9375 44.021H39.0625L38 45.0835L36.9375 44.021Z" stroke="#BF6102" stroke-width="3" stroke-linecap="round" stroke-linejoin="round"/>
</svg>
