<svg width="76" height="76" viewBox="0 0 76 76" fill="none" xmlns="http://www.w3.org/2000/svg">
<rect width="75.2216" height="75.2216" rx="37.6108" fill="white"/>
<path d="M40.7623 49.9002L49.1915 47.2793C49.0734 47.0668 48.9025 46.8841 48.6787 46.7311C48.4548 46.5781 48.2008 46.5011 47.9165 46.5002H40.7623C40.1248 46.5002 39.6172 46.4766 39.2394 46.4293C38.8616 46.3821 38.4721 46.2877 38.0707 46.146L36.0519 45.4731C35.6741 45.355 35.4026 45.1189 35.2373 44.7647C35.0721 44.4106 35.0484 44.0446 35.1665 43.6668C35.2846 43.2891 35.515 43.0114 35.8578 42.8338C36.2007 42.6563 36.5605 42.627 36.9373 42.746L38.4248 43.2418C38.8262 43.3599 39.281 43.4543 39.7891 43.5252C40.2972 43.596 40.9876 43.6432 41.8603 43.6668H42.2498C42.2498 43.4071 42.1733 43.1592 42.0203 42.9231C41.8673 42.687 41.6841 42.5335 41.4707 42.4627L33.1832 39.4168H30.9165V47.2085L40.7623 49.9002ZM40.0186 52.6627L30.9165 50.1127C30.7276 50.7266 30.3555 51.2224 29.8002 51.6002C29.2448 51.9779 28.6725 52.1668 28.0832 52.1668H25.2498C24.4707 52.1668 23.8039 51.8896 23.2495 51.3353C22.6951 50.7809 22.4174 50.1136 22.4165 49.3335V39.4168C22.4165 38.6377 22.6942 37.9709 23.2495 37.4165C23.8048 36.8621 24.4716 36.5844 25.2498 36.5835H33.1832C33.3484 36.5835 33.5137 36.6014 33.679 36.6373C33.8443 36.6732 33.9978 36.7143 34.1394 36.7606L42.4623 39.8418C43.2415 40.1252 43.8733 40.621 44.3578 41.3293C44.8423 42.0377 45.0841 42.8168 45.0832 43.6668H47.9165C49.0971 43.6668 50.1005 44.0564 50.9269 44.8356C51.7533 45.6147 52.1665 46.6418 52.1665 47.9168C52.1665 48.4363 52.0305 48.8438 51.7585 49.1394C51.4865 49.435 51.0676 49.6768 50.5019 49.8647L41.6478 52.6273C41.388 52.7217 41.1165 52.7689 40.8332 52.7689C40.5498 52.7689 40.2783 52.7335 40.0186 52.6627ZM25.2498 49.3335H28.0832V39.4168H25.2498V49.3335ZM42.6224 38.0894C42.2796 37.9591 41.9665 37.7641 41.6832 37.5043L37.7873 33.6793C37.0554 32.971 36.4358 32.1862 35.9287 31.3248C35.4215 30.4635 35.1674 29.5247 35.1665 28.5085C35.1665 27.2099 35.6213 26.1063 36.5308 25.1978C37.4403 24.2892 38.5438 23.8344 39.8415 23.8335C40.5971 23.8335 41.3054 23.9931 41.9665 24.3123C42.6276 24.6316 43.1943 25.0622 43.6665 25.6043C44.1387 25.0613 44.7054 24.6301 45.3665 24.3109C46.0276 23.9917 46.7359 23.8326 47.4915 23.8335C48.7901 23.8335 49.8942 24.2883 50.8037 25.1978C51.7132 26.1073 52.1674 27.2108 52.1665 28.5085C52.1665 29.5238 51.9186 30.4626 51.4228 31.3248C50.9269 32.1871 50.313 32.9719 49.5811 33.6793L45.6498 37.5043C45.3665 37.7641 45.0539 37.9591 44.712 38.0894C44.3701 38.2197 44.0216 38.2844 43.6665 38.2835C43.3114 38.2826 42.9634 38.2179 42.6224 38.0894ZM43.6665 35.4502L47.5269 31.6606C47.9755 31.212 48.3887 30.7341 48.7665 30.2269C49.1443 29.7197 49.3332 29.1469 49.3332 28.5085C49.3332 27.9891 49.1561 27.5523 48.8019 27.1981C48.4478 26.8439 48.0109 26.6668 47.4915 26.6668C47.1609 26.6668 46.8479 26.732 46.5523 26.8623C46.2566 26.9927 46.0031 27.1872 45.7915 27.446L44.7644 28.6856C44.4811 29.0161 44.1151 29.1814 43.6665 29.1814C43.2179 29.1814 42.8519 29.0161 42.5686 28.6856L41.5415 27.446C41.329 27.1863 41.0749 26.9913 40.7793 26.8609C40.4837 26.7306 40.1711 26.6659 39.8415 26.6668C39.3221 26.6668 38.8853 26.8439 38.5311 27.1981C38.1769 27.5523 37.9998 27.9891 37.9998 28.5085C37.9998 29.146 38.1887 29.7188 38.5665 30.2269C38.9443 30.735 39.3575 31.2129 39.8061 31.6606L43.6665 35.4502Z" fill="#BF6102"/>
</svg>
