<svg width="19" height="19" viewBox="0 0 19 19" fill="none" xmlns="http://www.w3.org/2000/svg">
<g clip-path="url(#clip0_11_434)">
<path d="M13.8557 0H4.24153C1.899 0 0 1.899 0 4.24153V13.8557C0 16.1982 1.899 18.0972 4.24153 18.0972H13.8557C16.1982 18.0972 18.0972 16.1982 18.0972 13.8557V4.24153C18.0972 1.899 16.1982 0 13.8557 0Z" fill="url(#paint0_radial_11_434)"/>
<path d="M13.8557 0H4.24153C1.899 0 0 1.899 0 4.24153V13.8557C0 16.1982 1.899 18.0972 4.24153 18.0972H13.8557C16.1982 18.0972 18.0972 16.1982 18.0972 13.8557V4.24153C18.0972 1.899 16.1982 0 13.8557 0Z" fill="url(#paint1_radial_11_434)"/>
<path d="M9.04935 1.97949C7.12949 1.97949 6.8885 1.9879 6.1345 2.02219C5.38191 2.05669 4.86819 2.1758 4.41873 2.35063C3.95371 2.53117 3.55932 2.77273 3.16641 3.16578C2.77315 3.55876 2.5316 3.95315 2.35049 4.41795C2.17517 4.86755 2.05591 5.38148 2.02205 6.13372C1.98833 6.88779 1.97949 7.12886 1.97949 9.04879C1.97949 10.9687 1.98798 11.2089 2.02219 11.9629C2.05683 12.7155 2.17595 13.2292 2.35063 13.6787C2.53132 14.1437 2.77287 14.5381 3.16592 14.931C3.55876 15.3243 3.95315 15.5664 4.41781 15.7469C4.86762 15.9218 5.38141 16.0409 6.13386 16.0754C6.88794 16.1097 7.12871 16.1181 9.0485 16.1181C10.9686 16.1181 11.2088 16.1097 11.9628 16.0754C12.7154 16.0409 13.2297 15.9218 13.6795 15.7469C14.1443 15.5664 14.5381 15.3243 14.9309 14.931C15.3241 14.5381 15.5656 14.1437 15.7468 13.6789C15.9206 13.2292 16.0399 12.7154 16.0752 11.9631C16.1091 11.2091 16.1179 10.9687 16.1179 9.04879C16.1179 7.12886 16.1091 6.88794 16.0752 6.13386C16.0399 5.38127 15.9206 4.86762 15.7468 4.41816C15.5656 3.95315 15.3241 3.55876 14.9309 3.16578C14.5377 2.77259 14.1444 2.53103 13.6791 2.3507C13.2284 2.1758 12.7144 2.05662 11.9618 2.02219C11.2077 1.9879 10.9677 1.97949 9.04716 1.97949H9.04935ZM8.41517 3.25344C8.60342 3.25315 8.81345 3.25344 9.04935 3.25344C10.9369 3.25344 11.1606 3.26022 11.906 3.29408C12.5952 3.32561 12.9693 3.44077 13.2185 3.53755C13.5484 3.66564 13.7836 3.81883 14.0309 4.06633C14.2783 4.31375 14.4314 4.54937 14.5599 4.87929C14.6567 5.12812 14.772 5.50223 14.8033 6.19148C14.8372 6.93671 14.8446 7.16053 14.8446 9.04716C14.8446 10.9338 14.8372 11.1577 14.8033 11.9028C14.7718 12.5921 14.6567 12.9662 14.5599 13.2151C14.4318 13.545 14.2783 13.7799 14.0309 14.0272C13.7835 14.2746 13.5486 14.4278 13.2185 14.5559C12.9696 14.6531 12.5952 14.768 11.906 14.7995C11.1607 14.8334 10.9369 14.8407 9.04935 14.8407C7.16173 14.8407 6.93799 14.8334 6.19282 14.7995C5.50357 14.7677 5.12947 14.6526 4.88006 14.5558C4.55021 14.4276 4.31453 14.2745 4.0671 14.0271C3.81968 13.7797 3.66656 13.5446 3.53811 13.2145C3.44134 12.9656 3.32604 12.5915 3.29465 11.9023C3.26079 11.157 3.254 10.9332 3.254 9.04539C3.254 7.15756 3.26079 6.93495 3.29465 6.18971C3.32618 5.50046 3.44134 5.12636 3.53811 4.87717C3.66628 4.54725 3.81968 4.31163 4.06718 4.06421C4.31467 3.81678 4.55021 3.66359 4.88014 3.53522C5.12933 3.43801 5.50357 3.32314 6.19282 3.29147C6.84496 3.26199 7.09768 3.25315 8.41517 3.25167V3.25344ZM12.8229 4.42721C12.3546 4.42721 11.9746 4.80683 11.9746 5.27523C11.9746 5.74357 12.3546 6.12354 12.8229 6.12354C13.2912 6.12354 13.6712 5.74357 13.6712 5.27523C13.6712 4.8069 13.2912 4.42693 12.8229 4.42693V4.42721ZM9.04935 5.41839C7.04452 5.41839 5.41902 7.04388 5.41902 9.04879C5.41902 11.0537 7.04452 12.6784 9.04935 12.6784C11.0543 12.6784 12.6792 11.0537 12.6792 9.04879C12.6792 7.04395 11.0541 5.41839 9.04921 5.41839H9.04935ZM9.04935 6.69233C10.3507 6.69233 11.4058 7.74727 11.4058 9.04879C11.4058 10.3502 10.3507 11.4052 9.04935 11.4052C7.74798 11.4052 6.69297 10.3502 6.69297 9.04879C6.69297 7.74727 7.74791 6.69233 9.04935 6.69233Z" fill="#F7F1E5"/>
</g>
<defs>
<radialGradient id="paint0_radial_11_434" cx="0" cy="0" r="1" gradientUnits="userSpaceOnUse" gradientTransform="translate(4.80707 19.491) rotate(-90) scale(17.9357 16.6816)">
<stop stop-color="#FFDD55"/>
<stop offset="0.1" stop-color="#FFDD55"/>
<stop offset="0.5" stop-color="#FF543E"/>
<stop offset="1" stop-color="#C837AB"/>
</radialGradient>
<radialGradient id="paint1_radial_11_434" cx="0" cy="0" r="1" gradientUnits="userSpaceOnUse" gradientTransform="translate(-3.03134 1.30368) rotate(78.68) scale(8.01735 33.0478)">
<stop stop-color="#3771C8"/>
<stop offset="0.128" stop-color="#3771C8"/>
<stop offset="1" stop-color="#6600FF" stop-opacity="0"/>
</radialGradient>
<clipPath id="clip0_11_434">
<rect width="18.0972" height="18.0972" fill="white"/>
</clipPath>
</defs>
</svg>
