<svg width="82" height="86" viewBox="0 0 82 86" fill="none" xmlns="http://www.w3.org/2000/svg">
<path d="M6.05861 35.5C4.8399 10.9532 22.8314 0.23634 41 0.50492" stroke="#9D8A74" stroke-linecap="round"/>
<path d="M6.05861 35.5C4.8399 10.9532 22.8314 0.23634 41 0.50492" stroke="black" stroke-opacity="0.2" stroke-linecap="round"/>
<path d="M75.9414 35.5C77.1601 10.9568 59.1686 0.236376 41 0.504917" stroke="#9D8A74" stroke-linecap="round"/>
<path d="M75.9414 35.5C77.1601 10.9568 59.1686 0.236376 41 0.504917" stroke="black" stroke-opacity="0.2" stroke-linecap="round"/>
<path d="M63.3896 65.4802C67.1826 61.9761 74.7831 53.1945 74.8416 46.1013" stroke="#4D6736" stroke-linecap="round"/>
<path d="M66.3788 62.3941L66.027 60.5051M66.027 60.5051C65.1439 59.6732 63.7951 57.2877 65.465 54.4013C66.212 54.9136 67.3701 56.8518 66.027 60.5051Z" stroke="#4D6736" stroke-linecap="round" stroke-linejoin="round"/>
<path d="M71.9775 54.7979L71.3653 53.0239M71.3653 53.0239C70.2145 52.3081 68.3469 50.1491 70.0829 47.2403C71.0375 47.663 72.6303 49.4114 71.3653 53.0239Z" stroke="#4D6736" stroke-linecap="round" stroke-linejoin="round"/>
<path d="M74.8414 46.1009C73.6104 45.8703 71.2924 44.5774 71.8685 41.2509C72.9445 41.4721 75.0454 42.7517 74.8414 46.1009Z" stroke="#4D6736" stroke-linecap="round" stroke-linejoin="round"/>
<path d="M75.3348 45.6641C76.3987 45.511 78.5191 44.0279 78.4895 39.3198C77.5569 39.4809 75.6203 40.9752 75.3348 45.6641Z" stroke="#4D6736" stroke-linecap="round" stroke-linejoin="round"/>
<path d="M67.8595 61.0833L69.7202 61.1966M69.7202 61.1966C70.4065 60.149 72.5121 58.2852 75.4439 59.2108C74.8937 60.5779 72.9788 62.8891 69.7202 61.1966ZM74.9102 52.6417C76.0806 51.3123 77.0258 48.5686 81.2124 48.8236C80.0554 52.4882 79.3985 52.5416 74.9102 52.6417Z" stroke="#4D6736" stroke-linecap="round" stroke-linejoin="round"/>
<path d="M74.91 52.6416C74.2709 52.914 72.9983 53.3656 73.021 52.9935" stroke="#4D6736" stroke-linecap="round" stroke-linejoin="round"/>
<path d="M18.3892 66.4802C14.5962 62.9761 6.99572 54.1945 6.93722 47.1013" stroke="#4D6736" stroke-linecap="round"/>
<path d="M15.4 63.3941L15.7518 61.5051M15.7518 61.5051C16.6349 60.6732 17.9837 58.2877 16.3138 55.4013C15.5669 55.9136 14.4087 57.8518 15.7518 61.5051Z" stroke="#4D6736" stroke-linecap="round" stroke-linejoin="round"/>
<path d="M9.80129 55.7979L10.4135 54.0239M10.4135 54.0239C11.5643 53.3081 13.4319 51.1491 11.6959 48.2403C10.7413 48.663 9.14855 50.4114 10.4135 54.0239Z" stroke="#4D6736" stroke-linecap="round" stroke-linejoin="round"/>
<path d="M6.93744 47.1009C8.16844 46.8703 10.4864 45.5774 9.9103 42.2509C8.83432 42.4721 6.73339 43.7517 6.93744 47.1009Z" stroke="#4D6736" stroke-linecap="round" stroke-linejoin="round"/>
<path d="M6.444 46.6641C5.38009 46.511 3.2597 45.0279 3.28932 40.3198C4.22191 40.4809 6.15847 41.9752 6.444 46.6641Z" stroke="#4D6736" stroke-linecap="round" stroke-linejoin="round"/>
<path d="M13.9193 62.0833L12.0586 62.1966M12.0586 62.1966C11.3723 61.149 9.26667 59.2852 6.33493 60.2108C6.88509 61.5779 8.80005 63.8891 12.0586 62.1966ZM6.86862 53.6417C5.69823 52.3123 4.75296 49.5686 0.566457 49.8236C1.72345 53.4882 2.38035 53.5416 6.86862 53.6417Z" stroke="#4D6736" stroke-linecap="round" stroke-linejoin="round"/>
<path d="M6.86882 53.6416C7.50793 53.914 8.78049 54.3656 8.75782 53.9935" stroke="#4D6736" stroke-linecap="round" stroke-linejoin="round"/>
<path d="M31.9072 29.868C31.8912 29.748 31.8752 29.584 31.8592 29.376C31.8512 29.176 31.8432 28.956 31.8352 28.716C31.8272 28.484 31.8192 28.264 31.8112 28.056C31.8112 27.848 31.8112 27.676 31.8112 27.54V19.272C31.7152 19.144 31.5792 19.024 31.4032 18.912C31.2272 18.8 31.0352 18.712 30.8272 18.648L30.9472 18.312C30.9552 18.272 31.0032 18.252 31.0912 18.252C31.2432 18.252 31.4192 18.272 31.6192 18.312C31.8272 18.344 32.0272 18.384 32.2192 18.432C32.4192 18.48 32.5792 18.528 32.6992 18.576C32.8032 18.616 32.8552 18.704 32.8552 18.84L32.8072 19.488V27.204C32.8072 27.388 32.7992 27.596 32.7832 27.828C32.7672 28.052 32.7472 28.288 32.7232 28.536C32.6992 28.784 32.6632 29.024 32.6152 29.256C32.5752 29.488 32.5312 29.692 32.4832 29.868H31.9072ZM28.9312 22.956H27.9712V21.216C27.8832 21.056 27.7392 20.928 27.5392 20.832L27.6112 20.568C27.6352 20.52 27.6752 20.496 27.7312 20.496C27.8352 20.496 27.9672 20.504 28.1272 20.52C28.2872 20.528 28.4432 20.54 28.5952 20.556C28.7552 20.572 28.8752 20.588 28.9552 20.604L28.9312 21.18V22.956ZM25.7752 22.956H24.8032V21.3C24.7312 21.228 24.6432 21.16 24.5392 21.096C24.4352 21.032 24.3232 20.98 24.2032 20.94L24.2752 20.652C24.2992 20.604 24.3432 20.58 24.4072 20.58C24.5112 20.58 24.6552 20.584 24.8392 20.592C25.0232 20.6 25.2032 20.612 25.3792 20.628C25.5632 20.636 25.7032 20.652 25.7992 20.676L25.7752 21.252V22.956ZM30.7552 21.06L28.9072 21.18V20.604C28.9632 20.596 29.0512 20.588 29.1712 20.58C29.2912 20.572 29.4072 20.564 29.5192 20.556C29.6312 20.54 29.7112 20.528 29.7592 20.52L30.0352 20.316C30.1552 20.316 30.3032 20.32 30.4792 20.328C30.6552 20.336 30.7912 20.352 30.8872 20.376C30.9912 20.384 31.0432 20.436 31.0432 20.532C31.0432 20.652 31.0272 20.756 30.9952 20.844C30.9712 20.924 30.9432 20.98 30.9112 21.012C30.8712 21.044 30.8192 21.06 30.7552 21.06ZM27.2752 21.156L25.7512 21.252V20.676C25.8072 20.668 25.8832 20.66 25.9792 20.652C26.0832 20.644 26.1832 20.636 26.2792 20.628C26.3832 20.612 26.4512 20.6 26.4832 20.592L26.7112 20.448C26.8152 20.448 26.9352 20.452 27.0712 20.46C27.2152 20.468 27.3272 20.48 27.4072 20.496C27.4952 20.512 27.5392 20.564 27.5392 20.652C27.5392 20.764 27.5272 20.86 27.5032 20.94C27.4792 21.02 27.4552 21.076 27.4312 21.108C27.3912 21.14 27.3392 21.156 27.2752 21.156ZM34.7392 23.868L32.5072 23.904V23.292L33.5032 23.256L33.8872 23.016C34.0712 23.008 34.2672 23.012 34.4752 23.028C34.6912 23.036 34.8512 23.052 34.9552 23.076C35.0832 23.108 35.1512 23.184 35.1592 23.304C35.1592 23.416 35.1432 23.516 35.1112 23.604C35.0872 23.692 35.0552 23.752 35.0152 23.784C34.9832 23.808 34.9392 23.828 34.8832 23.844C34.8352 23.86 34.7872 23.868 34.7392 23.868ZM28.1632 25.572C27.8512 25.772 27.4952 25.952 27.0952 26.112C26.6952 26.272 26.3272 26.384 25.9912 26.448C25.9272 26.456 25.8592 26.468 25.7872 26.484C25.7232 26.492 25.6672 26.496 25.6192 26.496C25.4192 26.496 25.2552 26.444 25.1272 26.34C24.9992 26.228 24.9072 26.076 24.8512 25.884C24.8352 25.836 24.8232 25.772 24.8152 25.692C24.8072 25.604 24.8032 25.504 24.8032 25.392V22.776H25.7752V25.44C25.7752 25.568 25.8352 25.628 25.9552 25.62C26.1632 25.596 26.3992 25.56 26.6632 25.512C26.9272 25.456 27.1912 25.388 27.4552 25.308C27.7192 25.22 27.9552 25.132 28.1632 25.044V25.572ZM32.0632 25.548C31.7752 25.684 31.4632 25.812 31.1272 25.932C30.7992 26.044 30.4672 26.14 30.1312 26.22C29.8032 26.292 29.5032 26.348 29.2312 26.388C29.1592 26.396 29.0872 26.404 29.0152 26.412C28.9512 26.412 28.8872 26.412 28.8232 26.412C28.6232 26.412 28.4552 26.36 28.3192 26.256C28.1832 26.144 28.0832 25.988 28.0192 25.788C28.0032 25.74 27.9912 25.668 27.9832 25.572C27.9752 25.476 27.9712 25.372 27.9712 25.26V22.8H28.9312V25.368C28.9312 25.504 28.9992 25.572 29.1352 25.572C29.3992 25.556 29.7032 25.524 30.0472 25.476C30.3992 25.428 30.7512 25.364 31.1032 25.284C31.4632 25.204 31.7832 25.116 32.0632 25.02V25.548ZM40.7611 19.464C40.6491 19.272 40.4451 19.104 40.1491 18.96L40.3171 18.672C40.3411 18.632 40.3971 18.616 40.4851 18.624C40.6371 18.64 40.8051 18.672 40.9891 18.72C41.1731 18.768 41.3451 18.82 41.5051 18.876C41.6651 18.932 41.7931 18.988 41.8891 19.044C42.0011 19.1 42.0571 19.184 42.0571 19.296L40.7611 19.464ZM36.5731 23.16C36.5411 23.112 36.5531 23.072 36.6091 23.04C37.2571 22.72 37.8491 22.368 38.3851 21.984C38.9211 21.592 39.3891 21.18 39.7891 20.748C40.1971 20.316 40.5211 19.888 40.7611 19.464L42.0571 19.296C42.0571 19.36 42.0491 19.416 42.0331 19.464C42.0171 19.512 42.0011 19.556 41.9851 19.596C41.6811 20.124 41.2731 20.624 40.7611 21.096C40.2571 21.568 39.6731 21.996 39.0091 22.38C38.3531 22.764 37.6331 23.088 36.8491 23.352C36.7931 23.376 36.7491 23.376 36.7171 23.352L36.5731 23.16ZM44.7571 22.764L40.6771 20.736L43.5331 21.444L44.3491 21.552C44.5011 21.64 44.6651 21.748 44.8411 21.876C45.0251 21.996 45.1611 22.1 45.2491 22.188C45.3851 22.308 45.4531 22.416 45.4531 22.512C45.4531 22.6 45.4131 22.68 45.3331 22.752C45.2611 22.824 45.1891 22.864 45.1171 22.872C45.0691 22.88 45.0131 22.872 44.9491 22.848C44.8851 22.824 44.8211 22.796 44.7571 22.764ZM43.5331 21.444L43.4851 21.516L40.6771 20.736L41.0851 20.268L43.5331 21.444ZM44.9971 23.94C45.1491 23.948 45.3131 23.964 45.4891 23.988C45.6731 24.004 45.8451 24.024 46.0051 24.048C46.1651 24.072 46.2931 24.104 46.3891 24.144C46.5011 24.176 46.5571 24.248 46.5571 24.36C46.5571 24.472 46.5251 24.576 46.4611 24.672C46.3971 24.768 46.3331 24.832 46.2691 24.864C46.1731 24.848 46.0331 24.836 45.8491 24.828C45.6731 24.82 45.4931 24.816 45.3091 24.816C45.1251 24.808 44.9731 24.804 44.8531 24.804C44.7171 24.804 44.4691 24.804 44.1091 24.804C43.7491 24.804 43.3291 24.808 42.8491 24.816C42.3771 24.824 41.8811 24.832 41.3611 24.84C40.8491 24.84 40.3571 24.844 39.8851 24.852C39.4211 24.86 39.0211 24.868 38.6851 24.876C38.3491 24.884 38.1251 24.892 38.0131 24.9C37.9171 24.908 37.7891 24.924 37.6291 24.948C37.4691 24.972 37.3091 25 37.1491 25.032C36.9971 25.064 36.8691 25.096 36.7651 25.128C36.5411 25.056 36.3171 24.956 36.0931 24.828C35.8771 24.7 35.6931 24.568 35.5411 24.432C35.5011 24.4 35.4891 24.36 35.5051 24.312L35.6011 24.132C35.8091 24.164 36.0411 24.192 36.2971 24.216C36.5611 24.24 36.7891 24.256 36.9811 24.264C37.0931 24.264 37.2971 24.264 37.5931 24.264C37.8891 24.264 38.2451 24.264 38.6611 24.264C39.0771 24.256 39.5251 24.248 40.0051 24.24C40.4851 24.232 40.9651 24.224 41.4451 24.216C41.9251 24.208 42.3771 24.2 42.8011 24.192C43.2251 24.184 43.5891 24.176 43.8931 24.168C44.2051 24.16 44.4211 24.152 44.5411 24.144L44.9971 23.94ZM40.7491 27.648C40.7331 27.496 40.7171 27.308 40.7011 27.084C40.6931 26.852 40.6851 26.62 40.6771 26.388C40.6691 26.148 40.6651 25.952 40.6651 25.8V24.588H41.6731V25.524C41.6731 25.716 41.6571 25.944 41.6251 26.208C41.6011 26.472 41.5651 26.732 41.5171 26.988C41.4771 27.244 41.4291 27.464 41.3731 27.648H40.7491ZM44.4571 29.4L39.1891 29.436L39.4171 28.824C39.5771 28.824 39.7771 28.824 40.0171 28.824C40.2571 28.824 40.5211 28.824 40.8091 28.824C41.0971 28.824 41.3811 28.82 41.6611 28.812C41.9491 28.812 42.2131 28.808 42.4531 28.8C42.6931 28.8 42.8851 28.796 43.0291 28.788L43.4371 28.56C43.6291 28.56 43.8411 28.568 44.0731 28.584C44.3131 28.6 44.4931 28.624 44.6131 28.656C44.7331 28.68 44.7931 28.74 44.7931 28.836C44.7931 28.972 44.7731 29.08 44.7331 29.16C44.7011 29.248 44.6691 29.308 44.6371 29.34C44.5971 29.38 44.5371 29.4 44.4571 29.4ZM39.1891 29.436C38.7971 29.428 38.5171 29.344 38.3491 29.184C38.1811 29.032 38.0971 28.788 38.0971 28.452V27.408H39.1291V28.512C39.1291 28.616 39.1491 28.692 39.1891 28.74C39.2371 28.796 39.3171 28.824 39.4291 28.824L39.1891 29.436ZM39.1291 27.756H38.0971V26.976C38.0011 26.896 37.8771 26.824 37.7251 26.76C37.5731 26.688 37.4171 26.632 37.2571 26.592L37.3291 26.304C37.3371 26.248 37.3851 26.22 37.4731 26.22C37.6171 26.22 37.7811 26.228 37.9651 26.244C38.1571 26.252 38.3451 26.264 38.5291 26.28C38.7131 26.296 38.8571 26.316 38.9611 26.34C39.0891 26.372 39.1531 26.456 39.1531 26.592L39.1291 27.156V27.756ZM52.1949 21.288C52.3549 21.296 52.5349 21.312 52.7349 21.336C52.9429 21.36 53.0989 21.392 53.2029 21.432C53.2909 21.464 53.3349 21.524 53.3349 21.612C53.3349 21.724 53.3029 21.828 53.2389 21.924C53.1749 22.012 53.1189 22.072 53.0709 22.104C52.9669 22.088 52.8069 22.08 52.5909 22.08C52.3829 22.072 52.2149 22.068 52.0869 22.068C52.0069 22.068 51.8629 22.072 51.6549 22.08C51.4469 22.08 51.2069 22.084 50.9349 22.092C50.6709 22.1 50.4029 22.108 50.1309 22.116C49.8669 22.124 49.6309 22.132 49.4229 22.14C49.2149 22.14 49.0709 22.144 48.9909 22.152C48.8869 22.16 48.7469 22.18 48.5709 22.212C48.4029 22.236 48.2709 22.268 48.1749 22.308C48.0149 22.236 47.8509 22.148 47.6829 22.044C47.5229 21.932 47.3869 21.828 47.2749 21.732C47.2349 21.684 47.2229 21.644 47.2389 21.612L47.3229 21.444C47.4909 21.476 47.6669 21.5 47.8509 21.516C48.0429 21.532 48.2069 21.54 48.3429 21.54C48.4389 21.54 48.6029 21.54 48.8349 21.54C49.0669 21.54 49.3309 21.536 49.6269 21.528C49.9309 21.52 50.2349 21.512 50.5389 21.504C50.8429 21.496 51.1109 21.488 51.3429 21.48C51.5829 21.464 51.7509 21.452 51.8469 21.444L52.1949 21.288ZM56.1429 29.796C56.1269 29.684 56.1109 29.532 56.0949 29.34C56.0869 29.148 56.0789 28.936 56.0709 28.704C56.0629 28.48 56.0549 28.268 56.0469 28.068C56.0469 27.86 56.0469 27.692 56.0469 27.564V19.236C55.9589 19.116 55.8309 19.004 55.6629 18.9C55.4949 18.788 55.3149 18.7 55.1229 18.636L55.2309 18.324C55.2389 18.292 55.2549 18.272 55.2789 18.264C55.3029 18.256 55.3389 18.252 55.3869 18.252C55.5309 18.252 55.6989 18.268 55.8909 18.3C56.0909 18.332 56.2829 18.372 56.4669 18.42C56.6589 18.468 56.8069 18.516 56.9109 18.564C57.0229 18.612 57.0749 18.7 57.0669 18.828L57.0309 19.428V27.24C57.0309 27.472 57.0189 27.744 56.9949 28.056C56.9709 28.368 56.9309 28.676 56.8749 28.98C56.8269 29.292 56.7669 29.564 56.6949 29.796H56.1429ZM53.9109 28.98C53.8949 28.868 53.8789 28.716 53.8629 28.524C53.8549 28.332 53.8469 28.132 53.8389 27.924C53.8309 27.716 53.8229 27.516 53.8149 27.324C53.8149 27.132 53.8149 26.972 53.8149 26.844V19.932C53.7349 19.82 53.6189 19.716 53.4669 19.62C53.3149 19.524 53.1509 19.444 52.9749 19.38L53.0829 19.068C53.1069 19.02 53.1589 18.996 53.2389 18.996C53.3749 18.996 53.5349 19.012 53.7189 19.044C53.9029 19.076 54.0789 19.116 54.2469 19.164C54.4149 19.212 54.5509 19.26 54.6549 19.308C54.7429 19.348 54.7869 19.428 54.7869 19.548L54.7629 20.1V26.532C54.7629 26.748 54.7509 27.008 54.7269 27.312C54.7029 27.616 54.6669 27.916 54.6189 28.212C54.5709 28.508 54.5109 28.764 54.4389 28.98H53.9109ZM56.3949 24.096L54.3189 24.144V23.496L56.3949 23.448V24.096ZM48.7389 19.68C49.2509 19.768 49.7469 19.828 50.2269 19.86C50.7069 19.892 51.1389 19.908 51.5229 19.908C51.6269 19.908 51.6909 19.948 51.7149 20.028C51.7469 20.092 51.7589 20.18 51.7509 20.292C51.7429 20.404 51.7189 20.484 51.6789 20.532C51.6629 20.564 51.6389 20.584 51.6069 20.592C51.5749 20.6 51.5389 20.604 51.4989 20.604C51.2189 20.612 50.8909 20.62 50.5149 20.628C50.1469 20.628 49.8349 20.64 49.5789 20.664C49.5309 20.664 49.4909 20.664 49.4589 20.664C49.4269 20.656 49.3949 20.64 49.3629 20.616C49.2429 20.544 49.1189 20.448 48.9909 20.328C48.8629 20.2 48.7509 20.068 48.6549 19.932C48.6229 19.884 48.6189 19.84 48.6429 19.8L48.7389 19.68ZM52.7829 24.672C52.7829 25.064 52.6789 25.408 52.4709 25.704C52.2709 26 51.9949 26.232 51.6429 26.4C51.2989 26.568 50.9189 26.652 50.5029 26.652C50.0789 26.652 49.6909 26.568 49.3389 26.4C48.9869 26.232 48.7029 26 48.4869 25.704C48.2789 25.408 48.1749 25.064 48.1749 24.672C48.1749 24.28 48.2789 23.94 48.4869 23.652C48.7029 23.356 48.9869 23.124 49.3389 22.956C49.6909 22.788 50.0789 22.704 50.5029 22.704C50.9189 22.704 51.2989 22.788 51.6429 22.956C51.9949 23.124 52.2709 23.356 52.4709 23.652C52.6789 23.94 52.7829 24.28 52.7829 24.672ZM51.8349 24.672C51.8349 24.264 51.7069 23.944 51.4509 23.712C51.1949 23.472 50.8789 23.352 50.5029 23.352C50.1269 23.352 49.8069 23.472 49.5429 23.712C49.2869 23.944 49.1589 24.264 49.1589 24.672C49.1589 25.08 49.2869 25.4 49.5429 25.632C49.8069 25.864 50.1269 25.98 50.5029 25.98C50.8789 25.98 51.1949 25.864 51.4509 25.632C51.7069 25.4 51.8349 25.08 51.8349 24.672Z" fill="#333333"/>
<path d="M30.565 37.575C30.355 37.575 30.1666 37.5183 30 37.405C29.8366 37.2917 29.7066 37.135 29.61 36.935C29.5166 36.735 29.47 36.5033 29.47 36.24C29.47 35.9533 29.5216 35.7067 29.625 35.5C29.7283 35.29 29.8683 35.1283 30.045 35.015C30.2216 34.9017 30.4183 34.845 30.635 34.845C30.7816 34.845 30.9233 34.8817 31.06 34.955C31.2 35.025 31.33 35.1433 31.45 35.31H31.495L31.435 35.445C31.315 35.315 31.2 35.2217 31.09 35.165C30.9833 35.105 30.8683 35.075 30.745 35.075C30.5916 35.075 30.4516 35.115 30.325 35.195C30.1983 35.2717 30.0966 35.395 30.02 35.565C29.9466 35.735 29.91 35.9567 29.91 36.23C29.91 36.4833 29.945 36.6917 30.015 36.855C30.085 37.0183 30.18 37.14 30.3 37.22C30.4233 37.2967 30.56 37.335 30.71 37.335C30.8466 37.335 30.9716 37.3067 31.085 37.25C31.1983 37.19 31.3116 37.09 31.425 36.95L31.49 37.09H31.44C31.33 37.2533 31.2 37.375 31.05 37.455C30.9 37.535 30.7383 37.575 30.565 37.575ZM31.39 37.55L31.37 37.055V37.04V35.345L31.38 35.3V33.785L30.925 33.76V33.625L31.72 33.475L31.79 33.52L31.775 34.28V37.33L32.245 37.36V37.5L31.39 37.55ZM33.7095 37.575C33.4995 37.575 33.3112 37.5183 33.1445 37.405C32.9812 37.2917 32.8512 37.135 32.7545 36.935C32.6612 36.735 32.6145 36.5033 32.6145 36.24C32.6145 35.9533 32.6662 35.7067 32.7695 35.5C32.8728 35.29 33.0128 35.1283 33.1895 35.015C33.3662 34.9017 33.5628 34.845 33.7795 34.845C33.9262 34.845 34.0678 34.8817 34.2045 34.955C34.3445 35.025 34.4745 35.1433 34.5945 35.31H34.6395L34.5795 35.445C34.4595 35.315 34.3445 35.2217 34.2345 35.165C34.1278 35.105 34.0128 35.075 33.8895 35.075C33.7362 35.075 33.5962 35.115 33.4695 35.195C33.3428 35.2717 33.2412 35.395 33.1645 35.565C33.0912 35.735 33.0545 35.9567 33.0545 36.23C33.0545 36.4833 33.0895 36.6917 33.1595 36.855C33.2295 37.0183 33.3245 37.14 33.4445 37.22C33.5678 37.2967 33.7045 37.335 33.8545 37.335C33.9912 37.335 34.1162 37.3067 34.2295 37.25C34.3428 37.19 34.4562 37.09 34.5695 36.95L34.6345 37.09H34.5845C34.4745 37.2533 34.3445 37.375 34.1945 37.455C34.0445 37.535 33.8828 37.575 33.7095 37.575ZM34.5345 37.55L34.5145 37.055V37.04V35.345L34.5245 35.3V33.785L34.0695 33.76V33.625L34.8645 33.475L34.9345 33.52L34.9195 34.28V37.33L35.3895 37.36V37.5L34.5345 37.55ZM36.4446 37.575C36.2446 37.575 36.0796 37.5183 35.9496 37.405C35.8196 37.2917 35.7546 37.1317 35.7546 36.925C35.7546 36.795 35.783 36.68 35.8396 36.58C35.8963 36.4767 35.9896 36.385 36.1196 36.305C36.253 36.225 36.4296 36.1533 36.6496 36.09C36.7896 36.0467 36.9363 36.005 37.0896 35.965C37.243 35.925 37.3863 35.89 37.5196 35.86V35.985C37.3863 36.0183 37.2513 36.055 37.1146 36.095C36.978 36.1317 36.853 36.1717 36.7396 36.215C36.5263 36.2917 36.3746 36.3833 36.2846 36.49C36.198 36.5967 36.1546 36.72 36.1546 36.86C36.1546 37.0133 36.1963 37.13 36.2796 37.21C36.3663 37.29 36.4796 37.33 36.6196 37.33C36.6963 37.33 36.7713 37.315 36.8446 37.285C36.918 37.255 37.0013 37.2033 37.0946 37.13C37.188 37.0567 37.298 36.9567 37.4246 36.83L37.4696 37.065H37.3496C37.2463 37.175 37.148 37.2683 37.0546 37.345C36.9646 37.4217 36.8713 37.4783 36.7746 37.515C36.678 37.555 36.568 37.575 36.4446 37.575ZM37.7796 37.57C37.6296 37.57 37.5163 37.52 37.4396 37.42C37.3663 37.3167 37.3246 37.1767 37.3146 37V36.985V35.705C37.3146 35.5183 37.2946 35.375 37.2546 35.275C37.2146 35.1717 37.153 35.1 37.0696 35.06C36.9863 35.02 36.878 35 36.7446 35C36.648 35 36.5513 35.015 36.4546 35.045C36.358 35.0717 36.2546 35.115 36.1446 35.175L36.3596 35.04L36.2796 35.435C36.2663 35.525 36.238 35.5883 36.1946 35.625C36.1546 35.6617 36.103 35.68 36.0396 35.68C35.9196 35.68 35.8463 35.62 35.8196 35.5C35.8696 35.2967 35.9846 35.1367 36.1646 35.02C36.3446 34.9033 36.5746 34.845 36.8546 34.845C37.1446 34.845 37.3596 34.915 37.4996 35.055C37.643 35.1917 37.7146 35.415 37.7146 35.725V36.96C37.7146 37.1167 37.733 37.2233 37.7696 37.28C37.8063 37.3333 37.858 37.36 37.9246 37.36C37.968 37.36 38.0063 37.3517 38.0396 37.335C38.073 37.315 38.1096 37.2833 38.1496 37.24L38.2296 37.315C38.1763 37.4017 38.1113 37.465 38.0346 37.505C37.9613 37.5483 37.8763 37.57 37.7796 37.57ZM39.3828 37.575C39.2228 37.575 39.0778 37.5567 38.9478 37.52C38.8178 37.4867 38.6845 37.4383 38.5478 37.375V36.78H38.7678L38.8878 37.41L38.7028 37.4V37.22C38.7962 37.2833 38.8945 37.3317 38.9978 37.365C39.1012 37.3983 39.2262 37.415 39.3728 37.415C39.5928 37.415 39.7578 37.37 39.8678 37.28C39.9812 37.19 40.0378 37.075 40.0378 36.935C40.0378 36.8117 39.9995 36.7117 39.9228 36.635C39.8495 36.555 39.7112 36.4833 39.5078 36.42L39.2478 36.325C39.0445 36.2517 38.8828 36.1583 38.7628 36.045C38.6462 35.9283 38.5878 35.7767 38.5878 35.59C38.5878 35.38 38.6678 35.2033 38.8278 35.06C38.9912 34.9167 39.2228 34.845 39.5228 34.845C39.6728 34.845 39.8062 34.8633 39.9228 34.9C40.0428 34.9367 40.1645 34.9933 40.2878 35.07L40.2728 35.605H40.0728L39.9528 35.02L40.1078 35.05V35.21C40.0078 35.14 39.9112 35.09 39.8178 35.06C39.7245 35.0267 39.6262 35.01 39.5228 35.01C39.3328 35.01 39.1895 35.0517 39.0928 35.135C38.9962 35.2183 38.9478 35.3267 38.9478 35.46C38.9478 35.58 38.9878 35.6783 39.0678 35.755C39.1478 35.8283 39.2778 35.8967 39.4578 35.96L39.7128 36.05C39.9662 36.1367 40.1462 36.24 40.2528 36.36C40.3595 36.48 40.4128 36.6267 40.4128 36.8C40.4128 36.9433 40.3728 37.075 40.2928 37.195C40.2162 37.3117 40.1028 37.405 39.9528 37.475C39.8028 37.5417 39.6128 37.575 39.3828 37.575ZM40.8511 37.5V37.36L41.3911 37.305H41.5561L42.0761 37.36V37.5H40.8511ZM41.2611 37.5C41.2644 37.42 41.2661 37.3117 41.2661 37.175C41.2694 37.0383 41.2711 36.8967 41.2711 36.75C41.2744 36.6 41.2761 36.4683 41.2761 36.355V36.055C41.2761 35.8817 41.2744 35.7283 41.2711 35.595C41.2711 35.4617 41.2678 35.3333 41.2611 35.21L40.8211 35.19V35.06L41.5911 34.86L41.6561 34.9L41.6861 35.485V35.49V36.355C41.6861 36.4683 41.6861 36.6 41.6861 36.75C41.6894 36.8967 41.6911 37.0383 41.6911 37.175C41.6944 37.3117 41.6978 37.42 41.7011 37.5H41.2611ZM42.5511 37.5V37.36L43.0861 37.305H43.2511L43.7761 37.36V37.5H42.5511ZM42.9611 37.5C42.9644 37.42 42.9661 37.3133 42.9661 37.18C42.9694 37.0433 42.9711 36.9017 42.9711 36.755C42.9744 36.605 42.9761 36.4717 42.9761 36.355V35.78C42.9761 35.5333 42.9344 35.3617 42.8511 35.265C42.7711 35.165 42.6594 35.115 42.5161 35.115C42.4028 35.115 42.2678 35.1517 42.1111 35.225C41.9544 35.2983 41.7844 35.4367 41.6011 35.64L41.5611 35.47H41.6111C41.7911 35.2467 41.9711 35.0867 42.1511 34.99C42.3311 34.8933 42.5094 34.845 42.6861 34.845C42.9028 34.845 43.0728 34.9183 43.1961 35.065C43.3194 35.2083 43.3811 35.45 43.3811 35.79V36.355C43.3811 36.4717 43.3811 36.605 43.3811 36.755C43.3844 36.9017 43.3861 37.0433 43.3861 37.18C43.3894 37.3133 43.3928 37.42 43.3961 37.5H42.9611ZM44.1568 37.5V37.36L44.7018 37.305H44.8668L45.3818 37.36V37.5H44.1568ZM44.5718 37.5C44.5751 37.42 44.5768 37.3117 44.5768 37.175C44.5801 37.0383 44.5818 36.8967 44.5818 36.75C44.5851 36.6 44.5868 36.4683 44.5868 36.355V33.78L44.1468 33.76V33.625L44.9268 33.475L45.0018 33.52L44.9868 34.295V35.44L44.9968 35.505V36.355C44.9968 36.4683 44.9968 36.6 44.9968 36.75C45.0001 36.8967 45.0018 37.0383 45.0018 37.175C45.0051 37.3117 45.0084 37.42 45.0118 37.5H44.5718ZM45.8668 37.5V37.36L46.4068 37.305H46.5668L47.0918 37.36V37.5H45.8668ZM46.2718 37.5C46.2751 37.42 46.2768 37.3133 46.2768 37.18C46.2801 37.0433 46.2818 36.9017 46.2818 36.755C46.2851 36.605 46.2868 36.4717 46.2868 36.355V35.78C46.2868 35.5333 46.2451 35.3617 46.1618 35.265C46.0818 35.165 45.9684 35.115 45.8218 35.115C45.7051 35.115 45.5701 35.1517 45.4168 35.225C45.2634 35.2983 45.0951 35.435 44.9118 35.635L44.8168 35.465H44.9268C45.1034 35.2483 45.2801 35.0917 45.4568 34.995C45.6334 34.895 45.8134 34.845 45.9968 34.845C46.2168 34.845 46.3884 34.9183 46.5118 35.065C46.6351 35.2083 46.6968 35.4517 46.6968 35.795V36.355C46.6968 36.4717 46.6968 36.605 46.6968 36.755C46.7001 36.9017 46.7034 37.0433 46.7068 37.18C46.7101 37.3133 46.7134 37.42 46.7168 37.5H46.2718ZM48.2024 37.575C48.0024 37.575 47.8374 37.5183 47.7074 37.405C47.5774 37.2917 47.5124 37.1317 47.5124 36.925C47.5124 36.795 47.5408 36.68 47.5974 36.58C47.6541 36.4767 47.7474 36.385 47.8774 36.305C48.0108 36.225 48.1874 36.1533 48.4074 36.09C48.5474 36.0467 48.6941 36.005 48.8474 35.965C49.0008 35.925 49.1441 35.89 49.2774 35.86V35.985C49.1441 36.0183 49.0091 36.055 48.8724 36.095C48.7358 36.1317 48.6108 36.1717 48.4974 36.215C48.2841 36.2917 48.1324 36.3833 48.0424 36.49C47.9558 36.5967 47.9124 36.72 47.9124 36.86C47.9124 37.0133 47.9541 37.13 48.0374 37.21C48.1241 37.29 48.2374 37.33 48.3774 37.33C48.4541 37.33 48.5291 37.315 48.6024 37.285C48.6758 37.255 48.7591 37.2033 48.8524 37.13C48.9458 37.0567 49.0558 36.9567 49.1824 36.83L49.2274 37.065H49.1074C49.0041 37.175 48.9058 37.2683 48.8124 37.345C48.7224 37.4217 48.6291 37.4783 48.5324 37.515C48.4358 37.555 48.3258 37.575 48.2024 37.575ZM49.5374 37.57C49.3874 37.57 49.2741 37.52 49.1974 37.42C49.1241 37.3167 49.0824 37.1767 49.0724 37V36.985V35.705C49.0724 35.5183 49.0524 35.375 49.0124 35.275C48.9724 35.1717 48.9108 35.1 48.8274 35.06C48.7441 35.02 48.6358 35 48.5024 35C48.4058 35 48.3091 35.015 48.2124 35.045C48.1158 35.0717 48.0124 35.115 47.9024 35.175L48.1174 35.04L48.0374 35.435C48.0241 35.525 47.9958 35.5883 47.9524 35.625C47.9124 35.6617 47.8608 35.68 47.7974 35.68C47.6774 35.68 47.6041 35.62 47.5774 35.5C47.6274 35.2967 47.7424 35.1367 47.9224 35.02C48.1024 34.9033 48.3324 34.845 48.6124 34.845C48.9024 34.845 49.1174 34.915 49.2574 35.055C49.4008 35.1917 49.4724 35.415 49.4724 35.725V36.96C49.4724 37.1167 49.4908 37.2233 49.5274 37.28C49.5641 37.3333 49.6158 37.36 49.6824 37.36C49.7258 37.36 49.7641 37.3517 49.7974 37.335C49.8308 37.315 49.8674 37.2833 49.9074 37.24L49.9874 37.315C49.9341 37.4017 49.8691 37.465 49.7924 37.505C49.7191 37.5483 49.6341 37.57 49.5374 37.57ZM51.5506 37.575C51.3073 37.575 51.089 37.525 50.8956 37.425C50.7023 37.325 50.5506 37.1733 50.4406 36.97C50.3306 36.7667 50.2756 36.515 50.2756 36.215C50.2756 35.935 50.3323 35.6933 50.4456 35.49C50.5623 35.2833 50.714 35.125 50.9006 35.015C51.0873 34.9017 51.2906 34.845 51.5106 34.845C51.7273 34.845 51.9123 34.8917 52.0656 34.985C52.2223 35.075 52.3406 35.1983 52.4206 35.355C52.504 35.5117 52.5456 35.6883 52.5456 35.885C52.5456 36.005 52.534 36.105 52.5106 36.185H50.4706V36.03H51.9206C52.0106 36.03 52.0706 36.0067 52.1006 35.96C52.1306 35.9133 52.1456 35.84 52.1456 35.74C52.1456 35.5267 52.089 35.3517 51.9756 35.215C51.8623 35.075 51.704 35.005 51.5006 35.005C51.354 35.005 51.2206 35.0517 51.1006 35.145C50.9806 35.235 50.8856 35.3667 50.8156 35.54C50.7456 35.71 50.7106 35.915 50.7106 36.155C50.7106 36.425 50.7506 36.6467 50.8306 36.82C50.914 36.9933 51.0273 37.1217 51.1706 37.205C51.314 37.285 51.4773 37.325 51.6606 37.325C51.8373 37.325 51.9906 37.295 52.1206 37.235C52.254 37.1717 52.3723 37.08 52.4756 36.96L52.5556 37.03C52.4456 37.1967 52.3073 37.33 52.1406 37.43C51.974 37.5267 51.7773 37.575 51.5506 37.575Z" fill="#777777"/>
<path d="M30.565 37.575C30.355 37.575 30.1666 37.5183 30 37.405C29.8366 37.2917 29.7066 37.135 29.61 36.935C29.5166 36.735 29.47 36.5033 29.47 36.24C29.47 35.9533 29.5216 35.7067 29.625 35.5C29.7283 35.29 29.8683 35.1283 30.045 35.015C30.2216 34.9017 30.4183 34.845 30.635 34.845C30.7816 34.845 30.9233 34.8817 31.06 34.955C31.2 35.025 31.33 35.1433 31.45 35.31H31.495L31.435 35.445C31.315 35.315 31.2 35.2217 31.09 35.165C30.9833 35.105 30.8683 35.075 30.745 35.075C30.5916 35.075 30.4516 35.115 30.325 35.195C30.1983 35.2717 30.0966 35.395 30.02 35.565C29.9466 35.735 29.91 35.9567 29.91 36.23C29.91 36.4833 29.945 36.6917 30.015 36.855C30.085 37.0183 30.18 37.14 30.3 37.22C30.4233 37.2967 30.56 37.335 30.71 37.335C30.8466 37.335 30.9716 37.3067 31.085 37.25C31.1983 37.19 31.3116 37.09 31.425 36.95L31.49 37.09H31.44C31.33 37.2533 31.2 37.375 31.05 37.455C30.9 37.535 30.7383 37.575 30.565 37.575ZM31.39 37.55L31.37 37.055V37.04V35.345L31.38 35.3V33.785L30.925 33.76V33.625L31.72 33.475L31.79 33.52L31.775 34.28V37.33L32.245 37.36V37.5L31.39 37.55ZM33.7095 37.575C33.4995 37.575 33.3112 37.5183 33.1445 37.405C32.9812 37.2917 32.8512 37.135 32.7545 36.935C32.6612 36.735 32.6145 36.5033 32.6145 36.24C32.6145 35.9533 32.6662 35.7067 32.7695 35.5C32.8728 35.29 33.0128 35.1283 33.1895 35.015C33.3662 34.9017 33.5628 34.845 33.7795 34.845C33.9262 34.845 34.0678 34.8817 34.2045 34.955C34.3445 35.025 34.4745 35.1433 34.5945 35.31H34.6395L34.5795 35.445C34.4595 35.315 34.3445 35.2217 34.2345 35.165C34.1278 35.105 34.0128 35.075 33.8895 35.075C33.7362 35.075 33.5962 35.115 33.4695 35.195C33.3428 35.2717 33.2412 35.395 33.1645 35.565C33.0912 35.735 33.0545 35.9567 33.0545 36.23C33.0545 36.4833 33.0895 36.6917 33.1595 36.855C33.2295 37.0183 33.3245 37.14 33.4445 37.22C33.5678 37.2967 33.7045 37.335 33.8545 37.335C33.9912 37.335 34.1162 37.3067 34.2295 37.25C34.3428 37.19 34.4562 37.09 34.5695 36.95L34.6345 37.09H34.5845C34.4745 37.2533 34.3445 37.375 34.1945 37.455C34.0445 37.535 33.8828 37.575 33.7095 37.575ZM34.5345 37.55L34.5145 37.055V37.04V35.345L34.5245 35.3V33.785L34.0695 33.76V33.625L34.8645 33.475L34.9345 33.52L34.9195 34.28V37.33L35.3895 37.36V37.5L34.5345 37.55ZM36.4446 37.575C36.2446 37.575 36.0796 37.5183 35.9496 37.405C35.8196 37.2917 35.7546 37.1317 35.7546 36.925C35.7546 36.795 35.783 36.68 35.8396 36.58C35.8963 36.4767 35.9896 36.385 36.1196 36.305C36.253 36.225 36.4296 36.1533 36.6496 36.09C36.7896 36.0467 36.9363 36.005 37.0896 35.965C37.243 35.925 37.3863 35.89 37.5196 35.86V35.985C37.3863 36.0183 37.2513 36.055 37.1146 36.095C36.978 36.1317 36.853 36.1717 36.7396 36.215C36.5263 36.2917 36.3746 36.3833 36.2846 36.49C36.198 36.5967 36.1546 36.72 36.1546 36.86C36.1546 37.0133 36.1963 37.13 36.2796 37.21C36.3663 37.29 36.4796 37.33 36.6196 37.33C36.6963 37.33 36.7713 37.315 36.8446 37.285C36.918 37.255 37.0013 37.2033 37.0946 37.13C37.188 37.0567 37.298 36.9567 37.4246 36.83L37.4696 37.065H37.3496C37.2463 37.175 37.148 37.2683 37.0546 37.345C36.9646 37.4217 36.8713 37.4783 36.7746 37.515C36.678 37.555 36.568 37.575 36.4446 37.575ZM37.7796 37.57C37.6296 37.57 37.5163 37.52 37.4396 37.42C37.3663 37.3167 37.3246 37.1767 37.3146 37V36.985V35.705C37.3146 35.5183 37.2946 35.375 37.2546 35.275C37.2146 35.1717 37.153 35.1 37.0696 35.06C36.9863 35.02 36.878 35 36.7446 35C36.648 35 36.5513 35.015 36.4546 35.045C36.358 35.0717 36.2546 35.115 36.1446 35.175L36.3596 35.04L36.2796 35.435C36.2663 35.525 36.238 35.5883 36.1946 35.625C36.1546 35.6617 36.103 35.68 36.0396 35.68C35.9196 35.68 35.8463 35.62 35.8196 35.5C35.8696 35.2967 35.9846 35.1367 36.1646 35.02C36.3446 34.9033 36.5746 34.845 36.8546 34.845C37.1446 34.845 37.3596 34.915 37.4996 35.055C37.643 35.1917 37.7146 35.415 37.7146 35.725V36.96C37.7146 37.1167 37.733 37.2233 37.7696 37.28C37.8063 37.3333 37.858 37.36 37.9246 37.36C37.968 37.36 38.0063 37.3517 38.0396 37.335C38.073 37.315 38.1096 37.2833 38.1496 37.24L38.2296 37.315C38.1763 37.4017 38.1113 37.465 38.0346 37.505C37.9613 37.5483 37.8763 37.57 37.7796 37.57ZM39.3828 37.575C39.2228 37.575 39.0778 37.5567 38.9478 37.52C38.8178 37.4867 38.6845 37.4383 38.5478 37.375V36.78H38.7678L38.8878 37.41L38.7028 37.4V37.22C38.7962 37.2833 38.8945 37.3317 38.9978 37.365C39.1012 37.3983 39.2262 37.415 39.3728 37.415C39.5928 37.415 39.7578 37.37 39.8678 37.28C39.9812 37.19 40.0378 37.075 40.0378 36.935C40.0378 36.8117 39.9995 36.7117 39.9228 36.635C39.8495 36.555 39.7112 36.4833 39.5078 36.42L39.2478 36.325C39.0445 36.2517 38.8828 36.1583 38.7628 36.045C38.6462 35.9283 38.5878 35.7767 38.5878 35.59C38.5878 35.38 38.6678 35.2033 38.8278 35.06C38.9912 34.9167 39.2228 34.845 39.5228 34.845C39.6728 34.845 39.8062 34.8633 39.9228 34.9C40.0428 34.9367 40.1645 34.9933 40.2878 35.07L40.2728 35.605H40.0728L39.9528 35.02L40.1078 35.05V35.21C40.0078 35.14 39.9112 35.09 39.8178 35.06C39.7245 35.0267 39.6262 35.01 39.5228 35.01C39.3328 35.01 39.1895 35.0517 39.0928 35.135C38.9962 35.2183 38.9478 35.3267 38.9478 35.46C38.9478 35.58 38.9878 35.6783 39.0678 35.755C39.1478 35.8283 39.2778 35.8967 39.4578 35.96L39.7128 36.05C39.9662 36.1367 40.1462 36.24 40.2528 36.36C40.3595 36.48 40.4128 36.6267 40.4128 36.8C40.4128 36.9433 40.3728 37.075 40.2928 37.195C40.2162 37.3117 40.1028 37.405 39.9528 37.475C39.8028 37.5417 39.6128 37.575 39.3828 37.575ZM40.8511 37.5V37.36L41.3911 37.305H41.5561L42.0761 37.36V37.5H40.8511ZM41.2611 37.5C41.2644 37.42 41.2661 37.3117 41.2661 37.175C41.2694 37.0383 41.2711 36.8967 41.2711 36.75C41.2744 36.6 41.2761 36.4683 41.2761 36.355V36.055C41.2761 35.8817 41.2744 35.7283 41.2711 35.595C41.2711 35.4617 41.2678 35.3333 41.2611 35.21L40.8211 35.19V35.06L41.5911 34.86L41.6561 34.9L41.6861 35.485V35.49V36.355C41.6861 36.4683 41.6861 36.6 41.6861 36.75C41.6894 36.8967 41.6911 37.0383 41.6911 37.175C41.6944 37.3117 41.6978 37.42 41.7011 37.5H41.2611ZM42.5511 37.5V37.36L43.0861 37.305H43.2511L43.7761 37.36V37.5H42.5511ZM42.9611 37.5C42.9644 37.42 42.9661 37.3133 42.9661 37.18C42.9694 37.0433 42.9711 36.9017 42.9711 36.755C42.9744 36.605 42.9761 36.4717 42.9761 36.355V35.78C42.9761 35.5333 42.9344 35.3617 42.8511 35.265C42.7711 35.165 42.6594 35.115 42.5161 35.115C42.4028 35.115 42.2678 35.1517 42.1111 35.225C41.9544 35.2983 41.7844 35.4367 41.6011 35.64L41.5611 35.47H41.6111C41.7911 35.2467 41.9711 35.0867 42.1511 34.99C42.3311 34.8933 42.5094 34.845 42.6861 34.845C42.9028 34.845 43.0728 34.9183 43.1961 35.065C43.3194 35.2083 43.3811 35.45 43.3811 35.79V36.355C43.3811 36.4717 43.3811 36.605 43.3811 36.755C43.3844 36.9017 43.3861 37.0433 43.3861 37.18C43.3894 37.3133 43.3928 37.42 43.3961 37.5H42.9611ZM44.1568 37.5V37.36L44.7018 37.305H44.8668L45.3818 37.36V37.5H44.1568ZM44.5718 37.5C44.5751 37.42 44.5768 37.3117 44.5768 37.175C44.5801 37.0383 44.5818 36.8967 44.5818 36.75C44.5851 36.6 44.5868 36.4683 44.5868 36.355V33.78L44.1468 33.76V33.625L44.9268 33.475L45.0018 33.52L44.9868 34.295V35.44L44.9968 35.505V36.355C44.9968 36.4683 44.9968 36.6 44.9968 36.75C45.0001 36.8967 45.0018 37.0383 45.0018 37.175C45.0051 37.3117 45.0084 37.42 45.0118 37.5H44.5718ZM45.8668 37.5V37.36L46.4068 37.305H46.5668L47.0918 37.36V37.5H45.8668ZM46.2718 37.5C46.2751 37.42 46.2768 37.3133 46.2768 37.18C46.2801 37.0433 46.2818 36.9017 46.2818 36.755C46.2851 36.605 46.2868 36.4717 46.2868 36.355V35.78C46.2868 35.5333 46.2451 35.3617 46.1618 35.265C46.0818 35.165 45.9684 35.115 45.8218 35.115C45.7051 35.115 45.5701 35.1517 45.4168 35.225C45.2634 35.2983 45.0951 35.435 44.9118 35.635L44.8168 35.465H44.9268C45.1034 35.2483 45.2801 35.0917 45.4568 34.995C45.6334 34.895 45.8134 34.845 45.9968 34.845C46.2168 34.845 46.3884 34.9183 46.5118 35.065C46.6351 35.2083 46.6968 35.4517 46.6968 35.795V36.355C46.6968 36.4717 46.6968 36.605 46.6968 36.755C46.7001 36.9017 46.7034 37.0433 46.7068 37.18C46.7101 37.3133 46.7134 37.42 46.7168 37.5H46.2718ZM48.2024 37.575C48.0024 37.575 47.8374 37.5183 47.7074 37.405C47.5774 37.2917 47.5124 37.1317 47.5124 36.925C47.5124 36.795 47.5408 36.68 47.5974 36.58C47.6541 36.4767 47.7474 36.385 47.8774 36.305C48.0108 36.225 48.1874 36.1533 48.4074 36.09C48.5474 36.0467 48.6941 36.005 48.8474 35.965C49.0008 35.925 49.1441 35.89 49.2774 35.86V35.985C49.1441 36.0183 49.0091 36.055 48.8724 36.095C48.7358 36.1317 48.6108 36.1717 48.4974 36.215C48.2841 36.2917 48.1324 36.3833 48.0424 36.49C47.9558 36.5967 47.9124 36.72 47.9124 36.86C47.9124 37.0133 47.9541 37.13 48.0374 37.21C48.1241 37.29 48.2374 37.33 48.3774 37.33C48.4541 37.33 48.5291 37.315 48.6024 37.285C48.6758 37.255 48.7591 37.2033 48.8524 37.13C48.9458 37.0567 49.0558 36.9567 49.1824 36.83L49.2274 37.065H49.1074C49.0041 37.175 48.9058 37.2683 48.8124 37.345C48.7224 37.4217 48.6291 37.4783 48.5324 37.515C48.4358 37.555 48.3258 37.575 48.2024 37.575ZM49.5374 37.57C49.3874 37.57 49.2741 37.52 49.1974 37.42C49.1241 37.3167 49.0824 37.1767 49.0724 37V36.985V35.705C49.0724 35.5183 49.0524 35.375 49.0124 35.275C48.9724 35.1717 48.9108 35.1 48.8274 35.06C48.7441 35.02 48.6358 35 48.5024 35C48.4058 35 48.3091 35.015 48.2124 35.045C48.1158 35.0717 48.0124 35.115 47.9024 35.175L48.1174 35.04L48.0374 35.435C48.0241 35.525 47.9958 35.5883 47.9524 35.625C47.9124 35.6617 47.8608 35.68 47.7974 35.68C47.6774 35.68 47.6041 35.62 47.5774 35.5C47.6274 35.2967 47.7424 35.1367 47.9224 35.02C48.1024 34.9033 48.3324 34.845 48.6124 34.845C48.9024 34.845 49.1174 34.915 49.2574 35.055C49.4008 35.1917 49.4724 35.415 49.4724 35.725V36.96C49.4724 37.1167 49.4908 37.2233 49.5274 37.28C49.5641 37.3333 49.6158 37.36 49.6824 37.36C49.7258 37.36 49.7641 37.3517 49.7974 37.335C49.8308 37.315 49.8674 37.2833 49.9074 37.24L49.9874 37.315C49.9341 37.4017 49.8691 37.465 49.7924 37.505C49.7191 37.5483 49.6341 37.57 49.5374 37.57ZM51.5506 37.575C51.3073 37.575 51.089 37.525 50.8956 37.425C50.7023 37.325 50.5506 37.1733 50.4406 36.97C50.3306 36.7667 50.2756 36.515 50.2756 36.215C50.2756 35.935 50.3323 35.6933 50.4456 35.49C50.5623 35.2833 50.714 35.125 50.9006 35.015C51.0873 34.9017 51.2906 34.845 51.5106 34.845C51.7273 34.845 51.9123 34.8917 52.0656 34.985C52.2223 35.075 52.3406 35.1983 52.4206 35.355C52.504 35.5117 52.5456 35.6883 52.5456 35.885C52.5456 36.005 52.534 36.105 52.5106 36.185H50.4706V36.03H51.9206C52.0106 36.03 52.0706 36.0067 52.1006 35.96C52.1306 35.9133 52.1456 35.84 52.1456 35.74C52.1456 35.5267 52.089 35.3517 51.9756 35.215C51.8623 35.075 51.704 35.005 51.5006 35.005C51.354 35.005 51.2206 35.0517 51.1006 35.145C50.9806 35.235 50.8856 35.3667 50.8156 35.54C50.7456 35.71 50.7106 35.915 50.7106 36.155C50.7106 36.425 50.7506 36.6467 50.8306 36.82C50.914 36.9933 51.0273 37.1217 51.1706 37.205C51.314 37.285 51.4773 37.325 51.6606 37.325C51.8373 37.325 51.9906 37.295 52.1206 37.235C52.254 37.1717 52.3723 37.08 52.4756 36.96L52.5556 37.03C52.4456 37.1967 52.3073 37.33 52.1406 37.43C51.974 37.5267 51.7773 37.575 51.5506 37.575Z" fill="black" fill-opacity="0.2"/>
<g filter="url(#filter0_d_190_531)">
<ellipse cx="41" cy="74" rx="27" ry="7.5" fill="url(#paint0_radial_190_531)" shape-rendering="crispEdges"/>
</g>
<path d="M24.8711 49.5263C24.7044 47.3596 24.7293 43.1265 25.9293 43.5265C26.5959 43.6931 28.1292 44.6264 28.9292 47.0264H32.9292C33.5959 46.0264 35.5711 44.4998 36.3711 44.4998C37.0378 44.4999 37.6292 45.1265 36.4292 49.5265C37.5959 50.8598 39.0292 54.1264 35.4292 56.5264C35.9292 58.693 37.6254 63 37.8711 63.5265C39.0378 66.0265 40.8711 71.5 36.9292 74.5264C35.5777 75.5639 33.8711 76 32.3711 76C32.3949 75.9762 32.4199 75.9512 32.4458 75.9251C31.3981 76.8038 29.4187 77.549 25.9292 77.5264C21.8607 77.5 18.9496 74.4111 20.3607 73C20.8608 72.5 21.8608 72.5 21.8608 72.5C21.8608 72.5 19.6042 71.0793 21.9292 63.5264C22.8608 60.5 24.4292 58.693 25.4292 56.5264C22.6292 53.7264 23.8711 50.6929 24.8711 49.5263Z" fill="#DEBE99"/>
<path d="M24.8711 49.5263C24.7044 47.3596 24.7293 43.1265 25.9293 43.5265C26.5959 43.6931 28.1292 44.6264 28.9292 47.0264H32.9292C33.5959 46.0264 35.5711 44.4998 36.3711 44.4998C37.0378 44.4999 37.6292 45.1265 36.4292 49.5265C37.5959 50.8598 39.0292 54.1264 35.4292 56.5264C35.9292 58.693 37.6254 63 37.8711 63.5265C39.0378 66.0265 40.8711 71.5 36.9292 74.5264C35.5777 75.5639 33.8711 76 32.3711 76C32.3949 75.9762 32.4199 75.9512 32.4458 75.9251C31.3981 76.8038 29.4187 77.549 25.9292 77.5264C21.8607 77.5 18.9496 74.4111 20.3607 73C20.8608 72.5 21.8608 72.5 21.8608 72.5C21.8608 72.5 19.6042 71.0793 21.9292 63.5264C22.8608 60.5 24.4292 58.693 25.4292 56.5264C22.6292 53.7264 23.8711 50.6929 24.8711 49.5263Z" fill="black" fill-opacity="0.2"/>
<path d="M30.8608 72.5C29.8608 74 25.8608 74.5 24.4292 73.5264C22.9976 72.5527 21.8608 72.5 21.8608 72.5M21.8608 72.5C21.8608 72.5 20.8608 72.5 20.3607 73C18.9496 74.4111 21.8607 77.5 25.9292 77.5264C32.9605 77.5719 33.8607 74.5 33.3607 73.5C33.8607 74.5 32.8711 75.5 32.3711 76C33.8711 76 35.5777 75.5639 36.9292 74.5264C40.8711 71.5 39.0378 66.0265 37.8711 63.5265C37.6254 63 35.9292 58.693 35.4292 56.5264C39.0292 54.1264 37.5959 50.8598 36.4292 49.5265C37.6292 45.1265 37.0378 44.4999 36.3711 44.4998C35.5711 44.4998 33.5959 46.0264 32.9292 47.0264H28.9292C28.1292 44.6264 26.5959 43.6931 25.9293 43.5265C24.7293 43.1265 24.7044 47.3596 24.8711 49.5263C23.8711 50.6929 22.6292 53.7264 25.4292 56.5264C24.4292 58.693 22.8608 60.5 21.9292 63.5264C19.6042 71.0793 21.8608 72.5 21.8608 72.5Z" stroke="#333333" stroke-linecap="round" stroke-linejoin="round"/>
<path d="M55.7891 49.5263C55.9557 47.3596 55.9309 43.1265 54.7309 43.5265C54.0642 43.6931 52.531 44.6264 51.731 47.0264H47.731C47.0643 46.0264 45.0891 44.4998 44.2891 44.4998C43.6224 44.4999 43.031 45.1265 44.231 49.5265C43.0643 50.8598 41.631 54.1264 45.231 56.5264C44.731 58.693 43.0348 63 42.7891 63.5265C41.6224 66.0265 39.7891 71.5 43.731 74.5264C45.0824 75.5639 46.7891 76 48.2891 76C48.2652 75.9762 48.2402 75.9512 48.2144 75.9251C49.2621 76.8038 51.2415 77.549 54.731 77.5264C58.7994 77.5 61.7105 74.4111 60.2995 73C59.7993 72.5 58.7993 72.5 58.7993 72.5C58.7993 72.5 61.0559 71.0793 58.7309 63.5264C57.7993 60.5 56.2309 58.693 55.2309 56.5264C58.0309 53.7264 56.7891 50.6929 55.7891 49.5263Z" fill="#A79C9C"/>
<path d="M55.7891 49.5263C55.9557 47.3596 55.9309 43.1265 54.7309 43.5265C54.0642 43.6931 52.531 44.6264 51.731 47.0264H47.731C47.0643 46.0264 45.0891 44.4998 44.2891 44.4998C43.6224 44.4999 43.031 45.1265 44.231 49.5265C43.0643 50.8598 41.631 54.1264 45.231 56.5264C44.731 58.693 43.0348 63 42.7891 63.5265C41.6224 66.0265 39.7891 71.5 43.731 74.5264C45.0824 75.5639 46.7891 76 48.2891 76C48.2652 75.9762 48.2402 75.9512 48.2144 75.9251C49.2621 76.8038 51.2415 77.549 54.731 77.5264C58.7994 77.5 61.7105 74.4111 60.2995 73C59.7993 72.5 58.7993 72.5 58.7993 72.5C58.7993 72.5 61.0559 71.0793 58.7309 63.5264C57.7993 60.5 56.2309 58.693 55.2309 56.5264C58.0309 53.7264 56.7891 50.6929 55.7891 49.5263Z" fill="black" fill-opacity="0.2"/>
<path d="M49.7993 72.5C50.7993 74 54.7993 74.5 56.2309 73.5264C57.6625 72.5527 58.7993 72.5 58.7993 72.5M58.7993 72.5C58.7993 72.5 59.7993 72.5 60.2995 73C61.7105 74.4111 58.7994 77.5 54.731 77.5264C47.6996 77.5719 46.7994 74.5 47.2994 73.5C46.7994 74.5 47.7891 75.5 48.2891 76C46.7891 76 45.0824 75.5639 43.731 74.5264C39.7891 71.5 41.6224 66.0265 42.7891 63.5265C43.0348 63 44.731 58.693 45.231 56.5264C41.631 54.1264 43.0643 50.8598 44.231 49.5265C43.031 45.1265 43.6224 44.4999 44.2891 44.4998C45.0891 44.4998 47.0643 46.0264 47.731 47.0264H51.731C52.531 44.6264 54.0642 43.6931 54.7309 43.5265C55.9309 43.1265 55.9557 47.3596 55.7891 49.5263C56.7891 50.6929 58.0309 53.7264 55.2309 56.5264C56.2309 58.693 57.7993 60.5 58.7309 63.5264C61.0559 71.0793 58.7993 72.5 58.7993 72.5Z" stroke="black" stroke-linecap="round" stroke-linejoin="round"/>
<defs>
<filter id="filter0_d_190_531" x="12" y="66.5" width="58" height="19" filterUnits="userSpaceOnUse" color-interpolation-filters="sRGB">
<feFlood flood-opacity="0" result="BackgroundImageFix"/>
<feColorMatrix in="SourceAlpha" type="matrix" values="0 0 0 0 0 0 0 0 0 0 0 0 0 0 0 0 0 0 127 0" result="hardAlpha"/>
<feOffset dy="2"/>
<feGaussianBlur stdDeviation="1"/>
<feComposite in2="hardAlpha" operator="out"/>
<feColorMatrix type="matrix" values="0 0 0 0 0 0 0 0 0 0 0 0 0 0 0 0 0 0 0.2 0"/>
<feBlend mode="normal" in2="BackgroundImageFix" result="effect1_dropShadow_190_531"/>
<feBlend mode="normal" in="SourceGraphic" in2="effect1_dropShadow_190_531" result="shape"/>
</filter>
<radialGradient id="paint0_radial_190_531" cx="0" cy="0" r="1" gradientUnits="userSpaceOnUse" gradientTransform="translate(41 74) scale(27 7.5)">
<stop stop-color="#B5C78A"/>
<stop offset="1" stop-color="#C5D0A9" stop-opacity="0.8"/>
</radialGradient>
</defs>
</svg>
